<?xml version="1.0" encoding="UTF-8"?>
<svg data-bbox="0.05 0.061 15.58 15.58" viewBox="0 0 15.694 15.686" xmlns="http://www.w3.org/2000/svg" data-type="shape">
    <g>
        <path d="M8.04 5.341l-.17.46h.33zm0 0l-.17.46h.33zm-2.59-.01a.121.121 0 00-.05-.05.133.133 0 00-.08-.03.308.308 0 00-.1-.01h-.21v.38h.31c.03-.01.05-.02.08-.03s.04-.03.05-.06a.251.251 0 00.02-.1.3.3 0 00-.02-.1zm2.59.01l-.17.46h.33zm-2.59-.01a.121.121 0 00-.05-.05.133.133 0 00-.08-.03.308.308 0 00-.1-.01h-.21v.38h.31c.03-.01.05-.02.08-.03s.04-.03.05-.06a.251.251 0 00.02-.1.3.3 0 00-.02-.1zm2.59.01l-.17.46h.33zM4.21 3.5a.843.843 0 00-.06-.14.244.244 0 00-.11-.09.34.34 0 00-.32 0 .313.313 0 00-.11.09c-.02.05-.04.09-.06.14a.97.97 0 00-.01.17.757.757 0 00.01.15c.02.05.04.1.06.14a.313.313 0 00.11.09.34.34 0 00.32 0 .244.244 0 00.11-.09.591.591 0 00.06-.14.772.772 0 00.02-.15.985.985 0 00-.02-.17zm1.24 1.83a.121.121 0 00-.05-.05.133.133 0 00-.08-.03.308.308 0 00-.1-.01h-.21v.38h.31c.03-.01.05-.02.08-.03s.04-.03.05-.06a.251.251 0 00.02-.1.3.3 0 00-.02-.099zm2.59.01l-.17.46h.33zM4.21 3.5a.843.843 0 00-.06-.14.244.244 0 00-.11-.09.34.34 0 00-.32 0 .313.313 0 00-.11.09c-.02.05-.04.09-.06.14a.97.97 0 00-.01.17.757.757 0 00.01.15c.02.05.04.1.06.14a.313.313 0 00.11.09.34.34 0 00.32 0 .244.244 0 00.11-.09.591.591 0 00.06-.14.772.772 0 00.02-.15.985.985 0 00-.02-.17zm1.24 1.83a.121.121 0 00-.05-.05.133.133 0 00-.08-.03.308.308 0 00-.1-.01h-.21v.38h.31c.03-.01.05-.02.08-.03s.04-.03.05-.06a.251.251 0 00.02-.1.3.3 0 00-.02-.099zm2.59.01l-.17.46h.33zM4.21 3.5a.843.843 0 00-.06-.14.244.244 0 00-.11-.09.34.34 0 00-.32 0 .313.313 0 00-.11.09c-.02.05-.04.09-.06.14a.97.97 0 00-.01.17.757.757 0 00.01.15c.02.05.04.1.06.14a.313.313 0 00.11.09.34.34 0 00.32 0 .244.244 0 00.11-.09.591.591 0 00.06-.14.772.772 0 00.02-.15.985.985 0 00-.02-.17zm1.24 1.83a.121.121 0 00-.05-.05.133.133 0 00-.08-.03.308.308 0 00-.1-.01h-.21v.38h.31c.03-.01.05-.02.08-.03s.04-.03.05-.06a.251.251 0 00.02-.1.3.3 0 00-.02-.099zm2.59.01l-.17.46h.33zm.1-2l-.17.46h.33zm-3.93.16a.843.843 0 00-.06-.14.244.244 0 00-.11-.09.34.34 0 00-.32 0 .313.313 0 00-.11.09c-.02.05-.04.09-.06.14a.97.97 0 00-.01.17.757.757 0 00.01.15c.02.05.04.1.06.14a.313.313 0 00.11.09.34.34 0 00.32 0 .244.244 0 00.11-.09.591.591 0 00.06-.14.772.772 0 00.02-.15.985.985 0 00-.02-.17zm1.24 1.83a.121.121 0 00-.05-.05.133.133 0 00-.08-.03.308.308 0 00-.1-.01h-.21v.38h.31c.03-.01.05-.02.08-.03s.04-.03.05-.06a.251.251 0 00.02-.1.3.3 0 00-.02-.099zm2.59.01l-.17.46h.33zm.1-2l-.17.46h.33zm-3.93.16a.843.843 0 00-.06-.14.244.244 0 00-.11-.09.34.34 0 00-.32 0 .313.313 0 00-.11.09c-.02.05-.04.09-.06.14a.97.97 0 00-.01.17.757.757 0 00.01.15c.02.05.04.1.06.14a.313.313 0 00.11.09.34.34 0 00.32 0 .244.244 0 00.11-.09.591.591 0 00.06-.14.772.772 0 00.02-.15.985.985 0 00-.02-.17zm1.24 1.83a.121.121 0 00-.05-.05.133.133 0 00-.08-.03.308.308 0 00-.1-.01h-.21v.38h.31c.03-.01.05-.02.08-.03s.04-.03.05-.06a.251.251 0 00.02-.1.3.3 0 00-.02-.099zm2.59.01l-.17.46h.33zm.1-2l-.17.46h.33zm1.46-.06a.259.259 0 00-.14-.04h-.31v.36h.31a.259.259 0 00.14-.04.221.221 0 000-.28zm1.38.23a.351.351 0 00-.06-.14.444.444 0 00-.11-.08.484.484 0 00-.18-.03h-.2v.8h.25a.5.5 0 00.12-.02.207.207 0 00.1-.06.24.24 0 00.07-.12.484.484 0 00.03-.18.881.881 0 00-.02-.169zM4.21 3.5a.843.843 0 00-.06-.14.244.244 0 00-.11-.09.34.34 0 00-.32 0 .313.313 0 00-.11.09c-.02.05-.04.09-.06.14a.97.97 0 00-.01.17.757.757 0 00.01.15c.02.05.04.1.06.14a.313.313 0 00.11.09.34.34 0 00.32 0 .244.244 0 00.11-.09.591.591 0 00.06-.14.772.772 0 00.02-.15.985.985 0 00-.02-.17zm1.24 1.83a.121.121 0 00-.05-.05.133.133 0 00-.08-.03.308.308 0 00-.1-.01h-.21v.38h.31c.03-.01.05-.02.08-.03s.04-.03.05-.06a.251.251 0 00.02-.1.3.3 0 00-.02-.099zm2.59.01l-.17.46h.33zm.1-2l-.17.46h.33zm1.46-.06a.259.259 0 00-.14-.04h-.31v.36h.31a.259.259 0 00.14-.04.221.221 0 000-.28zm1.38.23a.351.351 0 00-.06-.14.444.444 0 00-.11-.08.484.484 0 00-.18-.03h-.2v.8h.25a.5.5 0 00.12-.02.207.207 0 00.1-.06.24.24 0 00.07-.12.484.484 0 00.03-.18.881.881 0 00-.02-.169zM7.79.061a7.79 7.79 0 107.84 7.79A7.782 7.782 0 007.79.061zm4.37 3.81a.2.2 0 00-.09-.06 1.038 1.038 0 00-.12-.03.573.573 0 00-.14-.04c-.04-.01-.09-.03-.13-.04a.539.539 0 01-.13-.07.392.392 0 01-.08-.1.334.334 0 01-.03-.15.306.306 0 01.04-.17.318.318 0 01.11-.12.348.348 0 01.15-.07.5.5 0 01.17-.021.584.584 0 01.19.02.39.39 0 01.16.07.374.374 0 01.12.13.342.342 0 01.04.18h-.27a.239.239 0 00-.02-.09l-.06-.06a.689.689 0 00-.08-.03.277.277 0 00-.09-.01.17.17 0 00-.07.01.142.142 0 00-.06.02l-.05.05a.148.148 0 00-.01.07.127.127 0 00.01.06.154.154 0 00.06.04.433.433 0 00.11.04c.05.01.12.03.2.05a.507.507 0 01.09.02c.05.02.09.04.13.06a.573.573 0 01.11.11.342.342 0 01.04.18.351.351 0 01-.13.29.447.447 0 01-.17.08.755.755 0 01-.23.03 1.355 1.355 0 01-.2-.02.671.671 0 01-.17-.08.392.392 0 01-.12-.14.465.465 0 01-.05-.21h.27a.18.18 0 00.03.11.106.106 0 00.06.07.127.127 0 00.09.04.355.355 0 00.1.02.2.2 0 00.08-.01.188.188 0 00.08-.02.179.179 0 00.07-.05.188.188 0 00.02-.08.114.114 0 00-.03-.079zm-.1 2a.2.2 0 00-.09-.06 1.038 1.038 0 00-.12-.03.573.573 0 00-.14-.04c-.04-.01-.09-.03-.13-.04a.346.346 0 01-.12-.07.284.284 0 01-.09-.1.334.334 0 01-.03-.15.306.306 0 01.04-.17.318.318 0 01.11-.12.348.348 0 01.15-.07.5.5 0 01.17-.021.584.584 0 01.19.02.509.509 0 01.17.07.473.473 0 01.11.13.342.342 0 01.04.18h-.27a.239.239 0 00-.02-.09l-.06-.06a.689.689 0 00-.08-.03.248.248 0 00-.09-.01.17.17 0 00-.07.01.142.142 0 00-.06.02l-.05.05a.148.148 0 00-.01.07.127.127 0 00.01.06.154.154 0 00.06.04.66.66 0 00.11.04c.05.01.12.03.2.05a.507.507 0 01.09.02c.05.02.09.04.13.06a.573.573 0 01.11.11.342.342 0 01.04.18.351.351 0 01-.13.29.447.447 0 01-.17.08.755.755 0 01-.23.03 1.355 1.355 0 01-.2-.02.671.671 0 01-.17-.08.526.526 0 01-.12-.14.465.465 0 01-.05-.21h.27a.18.18 0 00.03.11.106.106 0 00.06.07.127.127 0 00.09.04.355.355 0 00.1.02.2.2 0 00.08-.01.292.292 0 00.09-.02.265.265 0 00.06-.05.188.188 0 00.02-.08.114.114 0 00-.03-.079zm-1.91-2.84h.55a.852.852 0 01.23.03.567.567 0 01.18.12.464.464 0 01.13.2 1.1 1.1 0 01.04.27.71.71 0 01-.04.26.626.626 0 01-.1.2.623.623 0 01-.18.14.71.71 0 01-.26.04h-.55zm-.1 2h.55a.852.852 0 01.23.03.567.567 0 01.18.12.464.464 0 01.13.2.766.766 0 01.04.27.71.71 0 01-.04.26.51.51 0 01-.28.34.677.677 0 01-.26.04h-.55zm-1.18-2h.68a.414.414 0 01.16.02.834.834 0 01.12.08.413.413 0 01.07.11.319.319 0 01.03.14.414.414 0 01-.05.19.263.263 0 01-.15.12V3.7a.2.2 0 01.08.04.435.435 0 01.06.07l.03.09c0 .03.01.06.01.09v.08a.2.2 0 01.01.08c0 .03.01.05.01.08a.163.163 0 00.03.06h-.28a.521.521 0 01-.02-.14c-.01-.06-.01-.11-.02-.16a.3.3 0 00-.06-.15.208.208 0 00-.15-.04h-.28v.49h-.28zm-.1 2h.69a.389.389 0 01.15.02.5.5 0 01.12.08.259.259 0 01.07.11.319.319 0 01.03.14.414.414 0 01-.05.19.263.263 0 01-.15.12V5.7a.2.2 0 01.08.04.435.435 0 01.06.07l.03.09c0 .03.01.06.01.09a.249.249 0 00.01.08v.08a.235.235 0 00.02.08.06.06 0 00.03.06h-.28a.29.29 0 01-.03-.14c-.01-.06-.01-.11-.02-.16a.3.3 0 00-.06-.15.208.208 0 00-.15-.04h-.28v.49h-.28zm-.77-2h.28l.48 1.26h-.29l-.1-.28H7.9l-.1.28h-.28zm.66 3.26h-.29l-.1-.28H7.8l-.1.28h-.28l.48-1.26h.29zm-2.48-3.26l.2.86.22-.86h.26l.22.87.21-.87h.28l-.35 1.26h-.27l-.22-.86-.21.86h-.29l-.33-1.26zm-.1 2l.2.86.22-.86h.26l.22.87.21-.87h.28l-.34 1.26h-.28l-.22-.86-.21.86h-.29l-.33-1.26zm-1.38-2h.27l.53.85h.01v-.85h.26v1.26h-.28l-.53-.84v.84H4.7zm1.04 2.4a.772.772 0 01-.02.15.411.411 0 01-.08.13.284.284 0 01-.14.09.4.4 0 01-.2.04h-.29v.45h-.28v-1.26h.57a.562.562 0 01.2.03.284.284 0 01.14.09.567.567 0 01.08.13.772.772 0 01.02.15zM3.3 3.4a.719.719 0 01.12-.21.558.558 0 01.2-.14.55.55 0 01.26-.05.526.526 0 01.26.05.483.483 0 01.2.14.719.719 0 01.12.21.763.763 0 01.05.27.7.7 0 01-.05.25.719.719 0 01-.12.21.483.483 0 01-.2.14.526.526 0 01-.26.05.55.55 0 01-.26-.05.558.558 0 01-.2-.14.719.719 0 01-.12-.21.69.69 0 01-.04-.25.766.766 0 01.04-.27zm.39 2.52a.2.2 0 00.04.08.27.27 0 00.08.07.464.464 0 00.14.02.232.232 0 00.2-.07.293.293 0 00.06-.21v-.78h.28v.78a.484.484 0 01-.15.39.569.569 0 01-.39.12.58.58 0 01-.4-.12.47.47 0 01-.15-.39v-.78h.28v.78c0 .041.01.071.01.111zm-.73 7.32c-.02.03-.1.03-.13.01-.16-.15-.31-.3-.46-.47.11 0 .2-.02.28.07a3.765 3.765 0 00.28.29c.02.031.06.06.03.101zm.37-.88c-.15-.16-.3-.33-.45-.49-.02-.03-.02-.04.01-.06.07-.04.14-.08.22-.12.02-.02.04-.01.05.01.21.2.41.41.62.61.01.01.03.03.01.04-.1.04-.19.07-.29.11a.585.585 0 01-.17-.099zm3.9-3.23c.01.01.03.05.05 0 .01 0 .01 0 .02.01l.01.01a.18.18 0 01.07.27.044.044 0 00-.01.05.43.43 0 00.1-.09c.02-.03.04-.03.07 0l.24.24a.114.114 0 01.03.08 1.532 1.532 0 01-.06.56c-.01.05-.02.04-.05.01-.37-.36-.73-.73-1.1-1.09a.217.217 0 01-.01-.22c.07-.09.14-.17.21-.25.02-.04.04-.04.06-.01a2.159 2.159 0 01.37.431zm0-1.03c.07-.04.15-.08.21-.11.03-.01.04.01.05.02.09.14.17.27.25.4.02.03-.01.16-.04.17a.052.052 0 01-.04-.02l-.42-.42c-.01-.009-.03-.029-.01-.04zm2.18 3.84c-.01.01-.03.02-.04 0-.17-.16-.33-.32-.49-.49v-.01a.088.088 0 01.07.01c.14.04.28.08.42.11a.974.974 0 01.24.15c.02.01.03.03.01.05zm.89 1.5a2.507 2.507 0 00.82.06h.05c.01 0 .01 0 .03.01a2.053 2.053 0 01-.48.1 2.431 2.431 0 01-1.25-.2 1.474 1.474 0 00-.78-.07 4.138 4.138 0 00-1.02.31 2.787 2.787 0 01-1.03.21 2.29 2.29 0 01-1.34-.42 1.1 1.1 0 01-.18-.14.5.5 0 01.13.04 3.745 3.745 0 00.93.24 2.494 2.494 0 001.56-.31 2.114 2.114 0 01.91-.32 1.545 1.545 0 01.84.16 3.825 3.825 0 00.81.331zm-1.34-2.38h-.01a.382.382 0 00-.12.32h-.02c-.02-.01-.03-.03-.04-.04-.32-.31-.63-.62-.94-.93a.093.093 0 01-.02-.12c.06-.11.11-.23.17-.34.04-.08.05-.08.11-.02.15.15.3.3.45.44a.18.18 0 01.04.09c0 .05.02.06.06.06a.091.091 0 01.08.04c.07.07.15.14.22.21a.33.33 0 01.02.291zm-1.23.19c.34.34.68.67 1.02 1.01.05.05.05.08.01.12a.436.436 0 00-.09.11.167.167 0 01-.21.09c-.09.03-.15-.02-.21-.08-.8-.8-1.59-1.6-2.39-2.39-.05-.05-.05-.08-.02-.12a1.225 1.225 0 01.24-.31c.05-.03.06-.02.09.01zm-1.57.1c.4.4.79.79 1.19 1.18.01.02.03.03.04.06h-.03a.249.249 0 00-.26.11 1.593 1.593 0 00-.13.13.042.042 0 01-.07 0c-.34-.35-.69-.7-1.04-1.04-.26-.27-.53-.53-.79-.8-.08-.08-.07-.14.03-.2a.7.7 0 00.21-.21c.01-.01.01-.04.04-.04a.1.1 0 01.05.06c.01.03 0 .06.02.08.05.08.08.17.12.25a.324.324 0 00.24.18.674.674 0 01.38.241zm-.94.77c.03.01.05.01.07.03l.67.68a.035.035 0 01.02.01c-.16 0-.32.01-.47 0h-.23a.091.091 0 01-.07-.03c-.23-.23-.45-.46-.68-.69a.01.01 0 01-.01-.01l.01-.01c.23 0 .46 0 .69.021zm-.61-.19a.055.055 0 01-.06-.04c-.01-.06-.05-.08-.11-.08a.184.184 0 01-.19-.19.18.18 0 00-.13-.15c-.12-.03-.19-.14-.28-.22a.1.1 0 01-.02-.07.875.875 0 01.02-.16c0-.02 0-.04.02-.04s.04 0 .05.02a.035.035 0 01.01.02.187.187 0 00.23.11.227.227 0 01.2.08l.6.6a.317.317 0 01.05.06 2.442 2.442 0 00-.39.061zm-.74.91a.1.1 0 01.07-.02c.09.02.17.03.26.05v.01c-.14.05-.28.09-.42.13-.02 0-.04 0-.05-.02s.01-.03.02-.04c.04-.039.08-.069.12-.109zm1.34 1.49a1.789 1.789 0 00-1-.1.2.2 0 01-.07-.01 6.15 6.15 0 01-.47-.3 1.28 1.28 0 01.32-.09 1.526 1.526 0 011.05.1c.2.09.4.2.61.28a2.813 2.813 0 001.25.2c.04 0 .08-.02.13 0a2.53 2.53 0 01-.53.12 2.583 2.583 0 01-1.29-.199zm4.16.73c-.01 0-.02-.01-.03-.01a1.938 1.938 0 00-1.28-.02c-.15.05-.29.1-.44.15a.4.4 0 01-.15.03c-.22-.02-.43-.04-.65-.07 0-.02.01-.02.02-.02a3.144 3.144 0 00.67-.31 2.066 2.066 0 011.14-.29 1.6 1.6 0 01.58.15c.19.09.38.19.59.28-.16.041-.3.081-.45.111zm2.68-1.17a2.916 2.916 0 01-.38.14 3.811 3.811 0 01-1 .28A2.442 2.442 0 019.11 14a.031.031 0 00-.01-.02c.14.03.27.06.4.09a3.1 3.1 0 001.78-.14c.12-.05.23-.11.35-.17a2.493 2.493 0 01.94-.27 3.8 3.8 0 01-.52.401zm1.59-1.49c-.09.11-.18.21-.26.31a.063.063 0 01-.08.03 3.384 3.384 0 00-.9-.06h-1.06a.554.554 0 00-.18.02c-.17.04-.35.09-.52.13-.07.02-.08.01-.06-.06a.2.2 0 00-.13-.27c-.05-.03-.1-.06-.14-.09-.02-.02-.05-.02-.06.01-.06.08-.13.17-.19.26-.01.02 0 .03 0 .06-.14-.05-.27-.1-.4-.14-.04-.01-.02-.03 0-.05.1-.13.21-.26.32-.38.02-.02.03-.04.05-.06a.222.222 0 01.25-.11 4.045 4.045 0 00.49.04 2 2 0 01.83.18c.1.04.2.08.31.12a.1.1 0 00.09-.01c.05-.03.11-.06.16-.09a.823.823 0 01.37-.13.245.245 0 00.16-.06c.13-.11.26-.22.4-.33.04-.03.05-.05.01-.1a.555.555 0 01-.06-.08.437.437 0 00-.31-.25.318.318 0 00-.09-.03.17.17 0 01-.15-.15.076.076 0 00-.08-.06l-.69-.18a.1.1 0 01-.08-.07 2.864 2.864 0 00-.07-.28.073.073 0 00-.02-.06.04.04 0 00-.02.04c-.04.13-.06.25-.09.37-.02.05.02.07.04.09.19.14.37.28.55.42a.114.114 0 01.06.13c-.02.12-.03.24-.04.36 0 .04-.02.05-.06.05-.21-.02-.42-.02-.63-.05a1.966 1.966 0 01-.32-.1c-.36-.13-.73-.25-1.09-.38a.148.148 0 01-.12-.08.972.972 0 00-.43-.35c-.05-.02-.09-.05-.13-.07s-.05-.04-.02-.07c.05-.05.09-.11.14-.17a.075.075 0 000-.09c-.09-.14-.17-.28-.26-.43a.116.116 0 00-.07-.05c-.01 0-.02-.01-.04 0a.236.236 0 01-.24-.2.612.612 0 00-.05-.12c-.02-.04-.02-.07.04-.09.11-.04.22-.1.33-.15.07-.03.07-.03.02-.07a1.476 1.476 0 00-.39-.26l-.78-.39c-.05-.02-.05-.05-.03-.09.05-.11.1-.23.15-.35a.075.075 0 000-.09c-.07-.11-.13-.23-.2-.35-.01-.02-.04-.04 0-.07s.06-.02.09.01c.14.18.29.35.43.52a.392.392 0 00.1.08c.36.22.72.42 1.07.65a.457.457 0 00.34.06c.07-.01.13-.01.2-.02.04 0 .06.01.06.05a2.458 2.458 0 01.02.28c.01.1.01.2.02.31a.074.074 0 00.03.07c.17.13.34.25.52.38a.077.077 0 01.03.01c-.11-.29-.21-.57-.32-.85h.01c.09.08.17.17.26.25.03.04.07.06.11.03a.279.279 0 01.37.05 4.873 4.873 0 00.43.33.238.238 0 00.11.06l1.05.42a.2.2 0 01.1.08c.15.24.3.48.44.72.02.03.03.06.08.03-.02.12-.03.22-.04.33a.091.091 0 01-.03.07c-.07.12-.14.25-.21.37-.03.04-.02.06.03.08.15.03.29.08.45.11.05.021.05.031.02.07zm.28-.39c-.02.03-.03.03-.06.02-.16-.09-.17-.1-.04-.23a.252.252 0 00.05-.25.8.8 0 01-.05-.21c-.02-.04-.01-.06.03-.07s.08-.02.11-.03a.071.071 0 01.06.03c.06.07.12.15.18.22a.078.078 0 01.01.08c-.09.151-.19.301-.29.441zm.45-.73c-.02.03-.03.03-.05 0-.08-.09-.15-.18-.23-.28a.091.091 0 00-.1-.03c-.15.03-.3.05-.45.08-.04.01-.06 0-.08-.04-.15-.2-.3-.41-.44-.61a.254.254 0 00-.1-.08l-1.11-.45a1.641 1.641 0 01-.25-.19c-.13-.1-.24-.21-.37-.31a.089.089 0 00-.11-.02c-.06.02-.13.04-.19.06a.076.076 0 01-.09-.02c-.14-.16-.28-.32-.43-.47a.1.1 0 00-.11-.04c-.15.03-.3.05-.45.08a.078.078 0 01-.08-.02c-.37-.23-.74-.47-1.1-.72a1.643 1.643 0 01-.29-.3 9.98 9.98 0 01-.32-.34.076.076 0 00-.09-.02c-.29.11-.59.22-.89.33a.134.134 0 00-.07.06c-.28.45-.57.89-.85 1.34-.06.07-.12.13-.18.2-.38.41-.76.82-1.15 1.23-.05.05-.03.11-.03.16s-.01.08-.07.07c-.15-.03-.31-.06-.46-.08a.31.31 0 01-.13-.06c-.05-.05-.1-.08-.15-.13-.03-.02-.06-.03-.09 0-.17.1-.33.21-.49.31-.03.01-.04.04-.06.06-.06.12-.14.25-.2.37a.134.134 0 01-.08.07l-.87.39a.332.332 0 00-.16.13.607.607 0 01-.07.1c-.05.07-.05.07-.1 0-.11-.15-.11-.15-.01-.32a.588.588 0 01.27-.22c.27-.11.54-.24.81-.36a.134.134 0 00.06-.07c.07-.12.14-.24.2-.36a.121.121 0 01.05-.05l.66-.42a.064.064 0 01.09.01 2.2 2.2 0 01.18.14.5.5 0 00.22.1.235.235 0 00.29-.1c.22-.25.45-.49.68-.73.19-.21.38-.41.57-.62a.27.27 0 00.07-.08c.29-.43.57-.88.84-1.32a.236.236 0 01.14-.12c.35-.13.69-.25 1.03-.38a.078.078 0 01.1.02l.6.66c.03.03.06.05.09.08.33.21.65.42.97.63a.144.144 0 00.14.02c.16-.03.31-.05.46-.08a.091.091 0 01.1.03c.13.15.27.3.41.46a.091.091 0 00.11.03.591.591 0 00.14-.06.14.14 0 01.15.03c.2.17.4.34.6.52a.346.346 0 00.12.07c.36.14.73.28 1.1.42a.462.462 0 01.07.07c.13.19.26.37.39.55a.117.117 0 00.11.05c.14-.03.28-.06.42-.08.04-.01.07-.01.09.02.1.12.2.25.3.37a.085.085 0 01.03.05c-.01 0-.01.02-.02.03zm-3.47-7.3a.24.24 0 00.07-.12.484.484 0 00.03-.18.881.881 0 00-.02-.17.351.351 0 00-.06-.14.444.444 0 00-.11-.08.484.484 0 00-.18-.03h-.2v.8h.25a.5.5 0 00.12-.02.207.207 0 00.1-.059zm-1.3-.42a.221.221 0 000-.28.259.259 0 00-.14-.04h-.31v.36h.31a.259.259 0 00.14-.039zm-1.46-.22l-.17.46h.33zM7.87 5.8h.33l-.16-.46zM5.4 5.281a.133.133 0 00-.08-.03.308.308 0 00-.1-.01h-.21v.38h.31c.03-.01.05-.02.08-.03s.04-.03.05-.06a.251.251 0 00.02-.1.3.3 0 00-.02-.1.121.121 0 00-.05-.05zm-1.79-1.32a.313.313 0 00.11.09.34.34 0 00.32 0 .244.244 0 00.11-.09.591.591 0 00.06-.14.772.772 0 00.02-.15.985.985 0 00-.02-.17.843.843 0 00-.06-.14.244.244 0 00-.11-.09.34.34 0 00-.32 0 .313.313 0 00-.11.09c-.02.05-.04.09-.06.14a.97.97 0 00-.01.17.757.757 0 00.01.15c.02.05.04.1.06.14zm5.99-.68a.259.259 0 00-.14-.04h-.31V3.6h.31a.259.259 0 00.14-.04.221.221 0 000-.28zm-1.46.06l-.17.46h.33zm-.1 2l-.17.46h.33zm-2.59-.01a.121.121 0 00-.05-.05.133.133 0 00-.08-.03.308.308 0 00-.1-.01h-.21v.38h.31c.03-.01.05-.02.08-.03s.04-.03.05-.06a.251.251 0 00.02-.1.3.3 0 00-.02-.1zM4.21 3.5a.843.843 0 00-.06-.14.244.244 0 00-.11-.09.34.34 0 00-.32 0 .313.313 0 00-.11.09c-.02.05-.04.09-.06.14a.97.97 0 00-.01.17.757.757 0 00.01.15c.02.05.04.1.06.14a.313.313 0 00.11.09.34.34 0 00.32 0 .244.244 0 00.11-.09.591.591 0 00.06-.14.772.772 0 00.02-.15.985.985 0 00-.02-.17zm5.39-.22a.259.259 0 00-.14-.04h-.31v.36h.31a.259.259 0 00.14-.04.221.221 0 000-.28zm-1.46.06l-.17.46h.33zm-.1 2l-.17.46h.33zm-2.59-.01a.121.121 0 00-.05-.05.133.133 0 00-.08-.03.308.308 0 00-.1-.01h-.21v.38h.31c.03-.01.05-.02.08-.03s.04-.03.05-.06a.251.251 0 00.02-.1.3.3 0 00-.02-.099zM4.21 3.5a.843.843 0 00-.06-.14.244.244 0 00-.11-.09.34.34 0 00-.32 0 .313.313 0 00-.11.09c-.02.05-.04.09-.06.14a.97.97 0 00-.01.17.757.757 0 00.01.15c.02.05.04.1.06.14a.313.313 0 00.11.09.34.34 0 00.32 0 .244.244 0 00.11-.09.591.591 0 00.06-.14.772.772 0 00.02-.15.985.985 0 00-.02-.17zm3.83 1.84l-.17.46h.33zm-2.59-.01a.121.121 0 00-.05-.05.133.133 0 00-.08-.03.308.308 0 00-.1-.01h-.21v.38h.31c.03-.01.05-.02.08-.03s.04-.03.05-.06a.251.251 0 00.02-.1.3.3 0 00-.02-.099zM4.21 3.5a.843.843 0 00-.06-.14.244.244 0 00-.11-.09.34.34 0 00-.32 0 .313.313 0 00-.11.09c-.02.05-.04.09-.06.14a.97.97 0 00-.01.17.757.757 0 00.01.15c.02.05.04.1.06.14a.313.313 0 00.11.09.34.34 0 00.32 0 .244.244 0 00.11-.09.591.591 0 00.06-.14.772.772 0 00.02-.15.985.985 0 00-.02-.17zm3.83 1.84l-.17.46h.33zm-2.59-.01a.121.121 0 00-.05-.05.133.133 0 00-.08-.03.308.308 0 00-.1-.01h-.21v.38h.31c.03-.01.05-.02.08-.03s.04-.03.05-.06a.251.251 0 00.02-.1.3.3 0 00-.02-.099zM4.21 3.5a.843.843 0 00-.06-.14.244.244 0 00-.11-.09.34.34 0 00-.32 0 .313.313 0 00-.11.09c-.02.05-.04.09-.06.14a.97.97 0 00-.01.17.757.757 0 00.01.15c.02.05.04.1.06.14a.313.313 0 00.11.09.34.34 0 00.32 0 .244.244 0 00.11-.09.591.591 0 00.06-.14.772.772 0 00.02-.15.985.985 0 00-.02-.17zm3.83 1.84l-.17.46h.33zm-2.59-.01a.121.121 0 00-.05-.05.133.133 0 00-.08-.03.308.308 0 00-.1-.01h-.21v.38h.31c.03-.01.05-.02.08-.03s.04-.03.05-.06a.251.251 0 00.02-.1.3.3 0 00-.02-.099zM4.21 3.5a.843.843 0 00-.06-.14.244.244 0 00-.11-.09.34.34 0 00-.32 0 .313.313 0 00-.11.09c-.02.05-.04.09-.06.14a.97.97 0 00-.01.17.757.757 0 00.01.15c.02.05.04.1.06.14a.313.313 0 00.11.09.34.34 0 00.32 0 .244.244 0 00.11-.09.591.591 0 00.06-.14.772.772 0 00.02-.15.985.985 0 00-.02-.17zm3.83 1.84l-.17.46h.33zm-2.59-.01a.121.121 0 00-.05-.05.133.133 0 00-.08-.03.308.308 0 00-.1-.01h-.21v.38h.31c.03-.01.05-.02.08-.03s.04-.03.05-.06a.251.251 0 00.02-.1.3.3 0 00-.02-.099zM4.21 3.5a.843.843 0 00-.06-.14.244.244 0 00-.11-.09.34.34 0 00-.32 0 .313.313 0 00-.11.09c-.02.05-.04.09-.06.14a.97.97 0 00-.01.17.757.757 0 00.01.15c.02.05.04.1.06.14a.313.313 0 00.11.09.34.34 0 00.32 0 .244.244 0 00.11-.09.591.591 0 00.06-.14.772.772 0 00.02-.15.985.985 0 00-.02-.17zm3.83 1.84l-.17.46h.33zm-2.59-.01a.121.121 0 00-.05-.05.133.133 0 00-.08-.03.308.308 0 00-.1-.01h-.21v.38h.31c.03-.01.05-.02.08-.03s.04-.03.05-.06a.251.251 0 00.02-.1.3.3 0 00-.02-.099zm2.59.01l-.17.46h.33zm-2.59-.01a.121.121 0 00-.05-.05.133.133 0 00-.08-.03.308.308 0 00-.1-.01h-.21v.38h.31c.03-.01.05-.02.08-.03s.04-.03.05-.06a.251.251 0 00.02-.1.3.3 0 00-.02-.099zm2.59.01l-.17.46h.33zm0 0l-.17.46h.33z"/>
        <path d="M9.55 5.421a.2.2 0 01-.05.14.259.259 0 01-.14.04h-.31v-.36h.31a.259.259 0 01.14.04.2.2 0 01.05.14z"/>
        <path d="M10.9 5.681a.484.484 0 01-.03.18.24.24 0 01-.07.12.207.207 0 01-.1.06.5.5 0 01-.12.02h-.25v-.8h.2a.484.484 0 01.18.03.444.444 0 01.11.08.351.351 0 01.06.14.881.881 0 01.02.17z"/>
    </g>
</svg>
